name Walk5.mot
datacolumns 19
datarows 17
range 1.73500000 1.81500000
endheader

                time	   L_ground_force_vx	   L_ground_force_vy	   L_ground_force_vz	   L_ground_force_px	   L_ground_force_py	   L_ground_force_pz	   R_ground_force_vx	   R_ground_force_vy	   R_ground_force_vz	   R_ground_force_px	   R_ground_force_py	   R_ground_force_pz	   L_ground_torque_x	   L_ground_torque_y	   L_ground_torque_z	   R_ground_torque_x	   R_ground_torque_y	   R_ground_torque_z	
          1.73500000	         -7.69352208	        656.05493447	         45.12672691	         -0.22984137	          0.00000000	         -0.07830301	         -0.09296031	          0.51497642	          0.00731055	          0.00000679	          0.00000000	         -0.00000683	          0.00000000	          0.69955690	          0.00000000	          0.00000000	          0.01031274	          0.00000000	
          1.74000000	         -7.15725473	        664.49635170	         45.45639875	         -0.22710568	          0.00000000	         -0.07828447	         -0.08657862	          0.23731062	          0.00330882	         -0.00011185	          0.00000000	         -0.00008820	          0.00000000	          0.73606743	          0.00000000	          0.00000000	          0.01783023	          0.00000000	
          1.74500000	         -6.40397872	        673.75439265	         45.72504787	         -0.22453236	          0.00000000	         -0.07821553	         -0.06594956	         -0.22494285	         -0.00333948	         -0.00028306	          0.00000000	         -0.00020423	          0.00000000	          0.76570788	          0.00000000	          0.00000000	          0.02735388	          0.00000000	
          1.75000000	         -5.37570178	        683.74504469	         45.92223296	         -0.22213440	          0.00000000	         -0.07809619	         -0.02564759	         -0.91802977	         -0.01329485	         -0.00051513	          0.00000000	         -0.00035996	          0.00000000	          0.78831669	          0.00000000	          0.00000000	          0.03883136	          0.00000000	
          1.75500000	         -4.00969243	        694.35424923	         46.03556805	         -0.21992147	          0.00000000	         -0.07792782	          0.04036155	         -1.88559659	         -0.02717942	         -0.00081348	          0.00000000	         -0.00055841	          0.00000000	          0.80268822	          0.00000000	          0.00000000	          0.05194012	          0.00000000	
          1.76000000	         -2.24298273	        705.43711114	         46.05071821	         -0.21789934	          0.00000000	         -0.07771185	          0.13831715	         -3.16185365	         -0.04547875	         -0.00117841	          0.00000000	         -0.00079901	          0.00000000	          0.80714526	          0.00000000	          0.00000000	          0.06597597	          0.00000000	
          1.76500000	         -0.01743082	        716.81886192	         45.95163008	         -0.21606989	          0.00000000	         -0.07744996	          0.27400874	         -4.76207768	         -0.06840555	         -0.00160214	          0.00000000	         -0.00107566	          0.00000000	          0.79987137	          0.00000000	          0.00000000	          0.07972651	          0.00000000	
          1.77000000	          2.71546526	        728.30006659	         45.72099875	         -0.21443002	          0.00000000	         -0.07714356	          0.45181047	         -6.67013667	         -0.09572081	         -0.00206530	          0.00000000	         -0.00137439	          0.00000000	          0.77912151	          0.00000000	          0.00000000	          0.09133630	          0.00000000	
          1.77500000	          5.99226155	        739.66297183	         45.34154064	         -0.21297054	          0.00000000	         -0.07679426	          0.67334997	         -8.82290999	         -0.12651062	         -0.00253284	          0.00000000	         -0.00167073	          0.00000000	          0.74317015	          0.00000000	          0.00000000	          0.09817605	          0.00000000	
          1.78000000	          9.83584102	        750.67541893	         44.79699534	         -0.21167646	          0.00000000	         -0.07640510	          0.93577121	        -11.09178847	         -0.15892130	         -0.00294954	          0.00000000	         -0.00192679	          0.00000000	          0.69047615	          0.00000000	          0.00000000	          0.09673394	          0.00000000	
          1.78500000	         14.25391776	        761.09252420	         44.07314376	         -0.21052793	          0.00000000	         -0.07598030	          1.22957871	        -13.26190256	         -0.18986240	         -0.00323557	          0.00000000	         -0.00208845	          0.00000000	          0.61986945	          0.00000000	          0.00000000	          0.08255514	          0.00000000	
          1.79000000	         19.23955601	        770.66197873	         43.16323009	         -0.20950211	          0.00000000	         -0.07552459	          1.53609457	        -15.01036947	         -0.21469596	         -0.00328256	          0.00000000	         -0.00208298	          0.00000000	          0.53062222	          0.00000000	          0.00000000	          0.05026363	          0.00000000	
          1.79500000	         24.77338926	        779.12938186	         42.07521210	         -0.20857589	          0.00000000	         -0.07504394	          1.82462559	        -15.88569323	         -0.22694286	         -0.00295101	          0.00000000	         -0.00181756	          0.00000000	          0.42315734	          0.00000000	          0.00000000	         -0.00629000	          0.00000000	
          1.80000000	         30.82343349	        786.23869289	         40.82786537	         -0.20772765	          0.00000000	         -0.07454366	          2.04952744	        -15.29150330	         -0.21805201	         -0.00207005	          0.00000000	         -0.00117951	          0.00000000	          0.29946297	          0.00000000	          0.00000000	         -0.09370285	          0.00000000	
          1.80500000	         37.34222583	        791.72920344	         39.44567626	         -0.20693790	          0.00000000	         -0.07402739	          2.14747053	        -12.47906384	         -0.17729587	         -0.00044101	          0.00000000	         -0.00003909	          0.00000000	          0.16287724	          0.00000000	          0.00000000	         -0.21845649	          0.00000000	
          1.81000000	         44.26388338	        795.32849783	         37.95524562	         -0.20619039	          0.00000000	         -0.07349803	          2.03535759	         -6.55438381	         -0.09187600	          0.00215367	          0.00000000	          0.00174409	          0.00000000	          0.01770678	          0.00000000	          0.00000000	         -0.38605297	          0.00000000	
          1.81500000	         51.50094803	        796.74632726	         36.38132211	         -0.20547348	          0.00000000	         -0.07295789	          1.60951419	          3.49278159	          0.05265689	          0.00593415	          0.00000000	          0.00430964	          0.00000000	         -0.13108112	          0.00000000	          0.00000000	         -0.59978834	          0.00000000	
